<svg version="1.1" id="klogo" xmlns="http://www.w3.org/2000/svg" xmlns:xlink="http://www.w3.org/1999/xlink" x="0px" y="0px" viewBox="0 0 254 72" xml:space="preserve">
  <g>
    <g>
      <path class="letters" d="M68.8,8.8h9v23.3l-0.2,1l10.5-12.7h11.5L87.8,33.9l11.8,18.6H88.1L77.7,34.3l0.2,1.1v17.2h-9.1V8.8z"></path>
      <path class="letters" d="M120.9,49c-1.1,1.5-3.2,4.2-8.4,4.2C105,53.2,99.4,47,99.4,37c0-12.6,7.9-17.3,13.9-17.3
        c3.5,0,6.3,1.8,7.9,4.9v-4.1h8.7v32.1h-8.9V49z M118.6,28.6c-0.9-1-2.3-1.6-3.6-1.6c-1.7,0-3.4,0.9-4.5,2.3
        c-1.5,2-1.9,4.6-1.9,7.1c0,2,0.2,3.9,1,5.5c1.2,2.8,3.3,3.8,5,3.8c0.6,0,2.3-0.1,3.9-1.8c1.9-2.1,2.3-4.9,2.3-7.8
        C120.9,32,119.8,29.8,118.6,28.6z"></path>
      <path class="letters" d="M144.1,20.4v3.8c2.2-3.2,5.1-4.6,9-4.6c7.9,0,13.2,6.6,13.2,16.8c0,9.8-5.4,16.9-13.6,16.9
        c-4.9,0-6.9-2.1-8.4-3.6v12.8h-9V20.4H144.1z M148,27.7c-3.5,1.8-3.7,6.2-3.7,9c0,2.1,0.2,4.2,1.2,5.8c1.2,2.4,3.3,3.2,5.3,3.2
        c4.6,0,6.5-4.6,6.5-9.8c0-3.6-1.2-8.8-6.3-8.8C149.9,27.1,148.9,27.3,148,27.7z"></path>
      <path class="letters" d="M202.5,36.4c0,10.6-7.6,17.1-17,17.1c-10.5,0-15.9-7.9-15.9-16.9c0-9.5,6-17,17-17
        C197.2,19.6,202.5,27.8,202.5,36.4z M191.7,29.7c-1.7-2.5-3.9-2.8-5.4-2.8c-1,0-2.3,0.2-3.5,0.8c-3.6,2-3.9,6.6-3.9,8.8
        c0,1.2,0.1,2.4,0.4,3.6c1.1,5.1,4.7,6,6.8,6c2.3,0,4.2-1,5.5-3c1.5-2.3,1.7-5.2,1.7-6.9C193.3,34.3,193.1,31.9,191.7,29.7z"></path>
      <path class="letters" d="M213.6,41.3c0.4,2.3,0.9,5.3,6.8,5.3c1.2,0,4.5-0.2,4.5-3c0-1.9-1.6-2.5-3.6-3c-0.9-0.2-5-1.2-6-1.5
        c-3.6-0.9-9.4-2.4-9.4-9.5c0-1.8,0.3-5.1,3.8-7.6c2.3-1.6,5.5-2.5,9.6-2.5c3.1,0,6.5,0.6,9.2,2.4c3,2,4.4,4.8,4.6,8.5l-8.5,0.4
        c-0.2-1.1-0.3-1.9-0.8-2.7c-0.1-0.2-1.4-2-4.9-2c-3.1,0-4.4,0.9-4.4,2.6c0,1.3,0.9,2,3.4,2.6c0.7,0.2,4.4,1.1,5.2,1.2
        c4.1,1,10.8,2.6,10.8,10c0,7.7-6.5,10.8-13.9,10.8c-2.5,0-4.5-0.3-6.1-0.7c-2.1-0.5-5.6-1.8-7.7-5.4c-1.4-2.3-1.4-4.3-1.4-5.7
        L213.6,41.3z"></path>
      <path class="letters" d="M240.4,10.9h9v9.5h4.5v6.9h-4.5v25.1h-9V27.4h-4.5v-6.9h4.5V10.9z"></path>
    </g>
    <path style="fill: #1b88dd" d="M50.5,0H7.4C3.3,0,0,3.3,0,7.5v43.4c0,4.1,3.3,7.5,7.4,7.5h22.1l18,13.6l0.1-13.6h2.8c4.1,0,7.4-3.3,7.4-7.5
      V7.5C58,3.3,54.6,0,50.5,0z M44.1,32l4.8,5.8l-7.6,0.6l1.3,6.6l-6.2-2.8l-1.9,7.1L29.2,43L23,47.3l-1.7-6.8l-10.5,0.4l4-7.1l-8.6-4
      l8-3.6l-3.9-7.8l8.2,1.3l0.8-7.4l5.1,3.5l2.4-7.4l5,6.8l4.8-3.5l1.9,5.7l7.9-2.5l-2.7,8.8l8.1,2.7L44.1,32z"></path>
  </g>
</svg>
